<svg version="1.1" id="Layer_1" xmlns="http://www.w3.org/2000/svg" xmlns:xlink="http://www.w3.org/1999/xlink" x="0px" y="0px"
	 width="100%" viewBox="0 0 373 170" enable-background="new 0 0 373 170" xml:space="preserve">
<path fill="#010100" opacity="1.000000" stroke="none" 
	d="
M225.000000,171.000000 
	C150.000015,171.000000 75.500015,171.000000 1.000020,171.000000 
	C1.000013,114.333351 1.000013,57.666698 1.000007,1.000035 
	C125.333305,1.000023 249.666611,1.000023 373.999939,1.000012 
	C373.999939,57.666630 373.999939,114.333260 373.999969,170.999939 
	C324.500000,171.000000 275.000000,171.000000 225.000000,171.000000 
M33.474430,59.138882 
	C33.356628,59.420013 33.238827,59.701149 32.948483,60.777336 
	C33.005997,61.855446 33.063507,62.933556 33.074245,64.522438 
	C33.374779,64.622993 33.675316,64.723549 34.904991,64.978539 
	C47.022217,64.979431 59.139442,64.980316 71.607208,65.780403 
	C71.731346,67.518669 71.855484,69.256927 71.689911,71.770409 
	C69.422264,71.709549 67.140152,71.455780 64.889740,71.624603 
	C58.556255,72.099754 51.980457,71.850594 45.975269,73.557953 
	C38.569283,75.663574 36.795338,81.713425 40.193466,89.645973 
	C45.537369,97.584938 49.899597,99.282692 59.262306,97.034668 
	C63.292976,96.066887 67.277016,94.586357 71.355309,94.264503 
	C73.523766,94.093361 75.848259,95.899361 78.102325,96.812897 
	C76.741623,98.645798 75.771233,101.213676 73.950607,102.180511 
	C67.166901,105.782982 60.060997,106.309357 52.896278,102.877373 
	C50.514790,101.736610 48.043518,100.309090 45.520889,100.093391 
	C43.643051,99.932831 40.479015,101.073273 39.952938,102.433182 
	C39.338989,104.020226 40.356827,107.233299 41.770538,108.380363 
	C43.974510,110.168640 47.103012,111.734909 49.849285,111.750839 
	C56.007687,111.786591 59.390419,114.632484 62.213428,119.808556 
	C65.400856,125.652809 70.861702,126.671356 75.869766,123.773132 
	C76.615692,115.411125 68.042778,116.768211 64.220848,113.064987 
	C67.858711,111.423386 71.014610,110.314392 73.847374,108.654060 
	C79.403877,105.397278 81.697266,100.323174 80.274803,95.343178 
	C78.874931,90.442291 74.054710,86.601982 68.024010,87.034645 
	C62.168243,87.454765 56.436539,89.400841 50.582954,90.150703 
	C48.095367,90.469376 45.436085,89.447716 42.871853,88.235298 
	C42.668262,81.942566 47.856842,81.411102 51.946251,80.135719 
	C60.106518,77.590759 68.043144,79.665253 76.247253,82.494179 
	C76.788216,82.329048 77.329185,82.163918 78.049202,81.078316 
	C78.049202,75.814857 78.049202,70.551392 78.049202,65.245193 
	C121.771133,65.245193 164.702805,65.245193 207.818817,65.245193 
	C207.818817,67.874779 207.818817,70.256195 207.818817,73.035385 
	C206.207748,73.035385 204.849838,72.794334 203.611755,73.077446 
	C198.465988,74.254082 193.049454,74.905418 188.309235,77.034218 
	C182.038910,79.850166 181.996964,85.277168 187.587265,89.245407 
	C188.077820,89.593628 188.845352,89.551636 189.924713,89.786911 
	C187.910339,91.077835 187.367630,91.464386 186.790237,91.789291 
	C183.341492,93.729889 179.377335,96.250061 180.464645,100.363953 
	C181.301178,103.528999 184.408157,106.894638 187.401932,108.541702 
	C197.154114,113.906952 207.691422,114.514404 218.318069,111.248657 
	C227.090195,108.552826 228.715714,104.831573 225.527023,95.691216 
	C223.692795,97.621826 222.015182,99.705284 220.023911,101.425659 
	C213.280060,107.251991 205.627457,110.333160 196.586731,108.279137 
	C193.251389,107.521355 189.859589,106.273880 190.085434,101.992943 
	C190.307358,97.786369 193.895721,96.764992 197.151688,96.137711 
	C201.194214,95.358894 205.344086,95.137329 209.404495,94.679924 
	C209.780411,90.020393 209.600800,89.809288 205.615707,90.107712 
	C204.291946,90.206841 202.926926,90.608231 201.656769,90.402420 
	C198.465698,89.885338 193.535675,91.417786 193.084625,86.762924 
	C192.671982,82.504242 197.261459,81.332466 200.622192,81.068604 
	C206.653351,80.595078 212.748352,80.935005 219.264557,80.935005 
	C219.134216,79.200684 219.595245,76.633232 218.797440,76.151779 
	C214.106812,73.321144 216.542847,69.215576 216.084473,65.292694 
	C230.670349,65.292694 244.921402,65.292694 259.385681,65.292694 
	C259.385681,67.834763 259.385681,70.213074 259.385681,72.792648 
	C258.095734,72.883865 257.088043,72.823143 256.146057,73.043419 
	C250.532028,74.356209 244.616257,75.009033 239.413956,77.283607 
	C233.640350,79.807976 233.627609,85.226715 238.568192,88.987839 
	C239.127686,89.413773 239.600159,89.953995 240.196701,90.520752 
	C238.330627,91.737724 236.702728,92.613312 235.289536,93.754723 
	C230.381790,97.718620 230.508881,102.955734 235.518066,106.709976 
	C245.477249,114.174088 264.934235,115.288498 275.437469,108.861702 
	C276.535522,108.189812 277.731812,106.766968 277.853699,105.586327 
	C278.186249,102.364624 277.968109,99.086067 277.968109,96.133636 
	C275.572083,98.118378 273.315033,99.981956 271.064484,101.853386 
	C264.474243,107.333427 257.061157,110.124672 248.438950,108.386833 
	C245.116409,107.717163 241.632355,106.527328 241.616043,102.321983 
	C241.598465,97.789627 245.407455,96.771118 248.833328,96.105804 
	C252.842514,95.327202 256.959198,95.102150 260.898376,94.651924 
	C261.872833,91.076691 260.850800,89.518761 257.314423,90.069122 
	C256.003571,90.273117 254.632401,90.599014 253.355560,90.412315 
	C250.105316,89.937050 245.092865,91.406021 244.519226,87.017670 
	C243.934494,82.544579 248.762863,81.321350 252.302872,81.039215 
	C258.324860,80.559280 264.412781,80.907104 270.918488,80.907104 
	C270.751770,79.174171 271.172729,76.649727 270.350220,76.142776 
	C265.707489,73.281219 267.902893,69.221764 267.716248,65.397430 
	C275.192627,65.397430 282.401672,65.397430 289.905853,65.397430 
	C289.905853,77.263023 289.818909,88.743271 289.935883,100.221451 
	C290.016296,108.112175 295.503815,113.193680 303.391541,113.007462 
	C310.675781,112.835472 316.491058,108.164604 319.502655,99.699059 
	C316.574219,97.956856 313.557373,96.162079 310.273346,94.208328 
	C309.626770,98.024918 309.707245,101.416023 308.392914,104.132202 
	C307.262756,106.467682 304.540466,108.032745 302.522156,109.938461 
	C301.343597,107.627693 299.267426,105.362038 299.148651,102.998009 
	C298.730988,94.687233 298.986115,86.342644 298.985931,78.010887 
	C298.985840,73.759895 298.985901,69.508904 298.985901,64.756348 
	C307.678467,64.756348 315.594055,64.756348 323.768341,64.756348 
	C323.659790,62.626038 323.578369,61.028439 323.471619,58.933876 
	C315.243195,58.933876 307.329010,58.933876 298.826782,58.933876 
	C300.340424,51.154682 298.058044,45.875648 289.865540,43.775196 
	C289.865540,48.782299 289.865540,53.672482 289.865540,58.990601 
	C287.356506,58.990601 285.391754,58.990604 283.427002,58.990604 
	C218.605927,58.990543 153.784851,58.977180 88.963783,58.998886 
	C70.638275,59.005024 52.312798,59.113693 33.474430,59.138882 
M154.598404,126.499191 
	C152.019867,128.108475 149.441315,129.717773 146.470093,131.572128 
	C147.995651,133.545547 148.914795,135.151718 150.215073,136.341263 
	C154.811417,140.546143 160.023666,142.536819 166.183060,139.976105 
	C172.200012,137.474609 174.140198,132.962250 173.997742,126.487061 
	C173.635742,110.033531 173.877396,93.566719 173.877411,77.105225 
	C173.877426,75.165565 173.877426,73.225914 173.877426,71.283669 
	C170.535004,71.283669 167.837357,71.283669 164.893005,71.283669 
	C164.893005,73.686562 164.893097,75.669609 164.893005,77.652657 
	C164.892151,95.943207 164.964478,114.234520 164.774658,132.523102 
	C164.756119,134.309540 163.122665,136.079224 162.238815,137.856674 
	C160.406158,136.700424 157.975052,135.935883 156.895538,134.286652 
	C155.607376,132.318680 155.476974,129.592880 154.598404,126.499191 
M99.524994,91.791039 
	C100.162872,83.936035 104.757004,78.667877 111.039566,74.680824 
	C115.005074,72.164215 120.116646,72.736366 121.170845,75.819901 
	C122.650009,80.146423 119.238388,82.018250 116.204292,83.805466 
	C115.098999,84.456535 113.833466,84.835579 112.345596,85.463402 
	C114.832741,88.250725 117.125183,90.819847 119.332695,93.293793 
	C126.359383,90.037048 129.976334,85.146118 129.032150,80.525642 
	C128.045105,75.695457 121.801102,70.807938 115.763527,71.136230 
	C111.574181,71.364021 107.462555,72.964783 103.307411,73.913574 
	C102.124992,74.183571 100.855064,74.647537 99.723549,74.452469 
	C96.618507,73.917152 93.565666,73.079018 89.898453,72.221985 
	C89.898453,82.874657 89.898170,92.164337 89.898537,101.454018 
	C89.898842,109.312164 90.872063,110.437378 99.493004,112.192589 
	C99.493004,105.656647 99.493004,99.191505 99.524994,91.791039 
M146.887878,80.549599 
	C146.887878,77.450607 146.887878,74.351616 146.887878,71.180634 
	C143.679703,71.180634 141.120148,71.180634 138.112122,71.180634 
	C138.112122,81.590050 138.111786,91.674835 138.112213,101.759628 
	C138.112549,109.427345 138.708832,110.171722 146.887878,112.389885 
	C146.887878,102.045708 146.887878,91.790245 146.887878,80.549599 
M144.960190,50.608780 
	C145.979782,51.867336 146.999390,53.125896 148.018997,54.384453 
	C148.062256,40.445496 141.471939,32.839470 131.220154,33.455887 
	C132.603409,37.944534 133.701111,42.118881 139.002197,44.029369 
	C141.295258,44.855782 142.788956,47.900158 144.960190,50.608780 
M160.537857,33.919392 
	C158.865204,33.595482 157.192566,33.271572 154.031128,32.659359 
	C156.642181,36.892002 157.840775,41.425880 160.473953,42.525993 
	C164.974854,44.406410 167.296448,47.319229 169.280258,51.256920 
	C169.896515,52.480114 171.315414,53.298939 172.366867,54.302887 
	C172.827011,53.897636 173.287140,53.492386 173.747284,53.087135 
	C170.465683,46.221802 171.280609,36.854515 160.537857,33.919392 
z"/>
<path fill="#B0BB00" opacity="1.000000" stroke="none" 
	d="
M33.121021,64.011665 
	C33.063507,62.933556 33.005997,61.855446 33.188736,60.255875 
	C33.628342,59.561287 33.814445,59.374924 33.987305,59.175331 
	C52.312798,59.113693 70.638275,59.005024 88.963783,58.998886 
	C153.784851,58.977180 218.605927,58.990543 283.427002,58.990604 
	C285.391754,58.990604 287.356506,58.990601 289.865540,58.990601 
	C289.865540,53.672482 289.865540,48.782299 289.865540,43.775196 
	C298.058044,45.875648 300.340424,51.154682 298.826782,58.933876 
	C307.329010,58.933876 315.243195,58.933876 323.471619,58.933876 
	C323.578369,61.028439 323.659790,62.626038 323.768341,64.756348 
	C315.594055,64.756348 307.678467,64.756348 298.985901,64.756348 
	C298.985901,69.508904 298.985840,73.759895 298.985931,78.010887 
	C298.986115,86.342644 298.730988,94.687233 299.148651,102.998009 
	C299.267426,105.362038 301.343597,107.627693 302.522156,109.938461 
	C304.540466,108.032745 307.262756,106.467682 308.392914,104.132202 
	C309.707245,101.416023 309.626770,98.024918 310.273346,94.208328 
	C313.557373,96.162079 316.574219,97.956856 319.502655,99.699059 
	C316.491058,108.164604 310.675781,112.835472 303.391541,113.007462 
	C295.503815,113.193680 290.016296,108.112175 289.935883,100.221451 
	C289.818909,88.743271 289.905853,77.263023 289.905853,65.397430 
	C282.401672,65.397430 275.192627,65.397430 267.716248,65.397430 
	C267.902893,69.221764 265.707489,73.281219 270.350220,76.142776 
	C271.172729,76.649727 270.751770,79.174171 270.918488,80.907104 
	C264.412781,80.907104 258.324860,80.559280 252.302872,81.039215 
	C248.762863,81.321350 243.934494,82.544579 244.519226,87.017670 
	C245.092865,91.406021 250.105316,89.937050 253.355560,90.412315 
	C254.632401,90.599014 256.003571,90.273117 257.314423,90.069122 
	C260.850800,89.518761 261.872833,91.076691 260.898376,94.651924 
	C256.959198,95.102150 252.842514,95.327202 248.833328,96.105804 
	C245.407455,96.771118 241.598465,97.789627 241.616043,102.321983 
	C241.632355,106.527328 245.116409,107.717163 248.438950,108.386833 
	C257.061157,110.124672 264.474243,107.333427 271.064484,101.853386 
	C273.315033,99.981956 275.572083,98.118378 277.968109,96.133636 
	C277.968109,99.086067 278.186249,102.364624 277.853699,105.586327 
	C277.731812,106.766968 276.535522,108.189812 275.437469,108.861702 
	C264.934235,115.288498 245.477249,114.174088 235.518066,106.709976 
	C230.508881,102.955734 230.381790,97.718620 235.289536,93.754723 
	C236.702728,92.613312 238.330627,91.737724 240.196701,90.520752 
	C239.600159,89.953995 239.127686,89.413773 238.568192,88.987839 
	C233.627609,85.226715 233.640350,79.807976 239.413956,77.283607 
	C244.616257,75.009033 250.532028,74.356209 256.146057,73.043419 
	C257.088043,72.823143 258.095734,72.883865 259.385681,72.792648 
	C259.385681,70.213074 259.385681,67.834763 259.385681,65.292694 
	C244.921402,65.292694 230.670349,65.292694 216.084473,65.292694 
	C216.542847,69.215576 214.106812,73.321144 218.797440,76.151779 
	C219.595245,76.633232 219.134216,79.200684 219.264557,80.935005 
	C212.748352,80.935005 206.653351,80.595078 200.622192,81.068604 
	C197.261459,81.332466 192.671982,82.504242 193.084625,86.762924 
	C193.535675,91.417786 198.465698,89.885338 201.656769,90.402420 
	C202.926926,90.608231 204.291946,90.206841 205.615707,90.107712 
	C209.600800,89.809288 209.780411,90.020393 209.404495,94.679924 
	C205.344086,95.137329 201.194214,95.358894 197.151688,96.137711 
	C193.895721,96.764992 190.307358,97.786369 190.085434,101.992943 
	C189.859589,106.273880 193.251389,107.521355 196.586731,108.279137 
	C205.627457,110.333160 213.280060,107.251991 220.023911,101.425659 
	C222.015182,99.705284 223.692795,97.621826 225.527023,95.691216 
	C228.715714,104.831573 227.090195,108.552826 218.318069,111.248657 
	C207.691422,114.514404 197.154114,113.906952 187.401932,108.541702 
	C184.408157,106.894638 181.301178,103.528999 180.464645,100.363953 
	C179.377335,96.250061 183.341492,93.729889 186.790237,91.789291 
	C187.367630,91.464386 187.910339,91.077835 189.924713,89.786911 
	C188.845352,89.551636 188.077820,89.593628 187.587265,89.245407 
	C181.996964,85.277168 182.038910,79.850166 188.309235,77.034218 
	C193.049454,74.905418 198.465988,74.254082 203.611755,73.077446 
	C204.849838,72.794334 206.207748,73.035385 207.818817,73.035385 
	C207.818817,70.256195 207.818817,67.874779 207.818817,65.245193 
	C164.702805,65.245193 121.771133,65.245193 78.049202,65.245193 
	C78.049202,70.551392 78.049202,75.814857 77.629654,81.541702 
	C76.770172,82.016777 76.330223,82.028458 75.890282,82.040138 
	C68.043144,79.665253 60.106518,77.590759 51.946251,80.135719 
	C47.856842,81.411102 42.668262,81.942566 42.517349,88.626678 
	C41.470810,89.002960 40.778778,88.987877 40.086742,88.972794 
	C36.795338,81.713425 38.569283,75.663574 45.975269,73.557953 
	C51.980457,71.850594 58.556255,72.099754 64.889740,71.624603 
	C67.140152,71.455780 69.422264,71.709549 72.007614,71.143890 
	C71.969093,68.671982 71.612877,66.826591 71.256668,64.981209 
	C59.139442,64.980316 47.022217,64.979431 34.307903,64.755676 
	C33.527054,64.344574 33.330456,64.170853 33.121021,64.011665 
z"/>
<path fill="#AFBA00" opacity="1.000000" stroke="none" 
	d="
M40.140106,89.309387 
	C40.778778,88.987877 41.470810,89.002960 42.508839,89.026627 
	C45.436085,89.447716 48.095367,90.469376 50.582954,90.150703 
	C56.436539,89.400841 62.168243,87.454765 68.024010,87.034645 
	C74.054710,86.601982 78.874931,90.442291 80.274803,95.343178 
	C81.697266,100.323174 79.403877,105.397278 73.847374,108.654060 
	C71.014610,110.314392 67.858711,111.423386 64.220848,113.064987 
	C68.042778,116.768211 76.615692,115.411125 75.869766,123.773132 
	C70.861702,126.671356 65.400856,125.652809 62.213428,119.808556 
	C59.390419,114.632484 56.007687,111.786591 49.849285,111.750839 
	C47.103012,111.734909 43.974510,110.168640 41.770538,108.380363 
	C40.356827,107.233299 39.338989,104.020226 39.952938,102.433182 
	C40.479015,101.073273 43.643051,99.932831 45.520889,100.093391 
	C48.043518,100.309090 50.514790,101.736610 52.896278,102.877373 
	C60.060997,106.309357 67.166901,105.782982 73.950607,102.180511 
	C75.771233,101.213676 76.741623,98.645798 78.102325,96.812897 
	C75.848259,95.899361 73.523766,94.093361 71.355309,94.264503 
	C67.277016,94.586357 63.292976,96.066887 59.262306,97.034668 
	C49.899597,99.282692 45.537369,97.584938 40.140106,89.309387 
z"/>
<path fill="#ADB800" opacity="1.000000" stroke="none" 
	d="
M154.721725,126.847282 
	C155.476974,129.592880 155.607376,132.318680 156.895538,134.286652 
	C157.975052,135.935883 160.406158,136.700424 162.238815,137.856674 
	C163.122665,136.079224 164.756119,134.309540 164.774658,132.523102 
	C164.964478,114.234520 164.892151,95.943207 164.893005,77.652657 
	C164.893097,75.669609 164.893005,73.686562 164.893005,71.283669 
	C167.837357,71.283669 170.535004,71.283669 173.877426,71.283669 
	C173.877426,73.225914 173.877426,75.165565 173.877411,77.105225 
	C173.877396,93.566719 173.635742,110.033531 173.997742,126.487061 
	C174.140198,132.962250 172.200012,137.474609 166.183060,139.976105 
	C160.023666,142.536819 154.811417,140.546143 150.215073,136.341263 
	C148.914795,135.151718 147.995651,133.545547 146.470093,131.572128 
	C149.441315,129.717773 152.019867,128.108475 154.721725,126.847282 
z"/>
<path fill="#AFB900" opacity="1.000000" stroke="none" 
	d="
M99.509003,92.258705 
	C99.493004,99.191505 99.493004,105.656647 99.493004,112.192589 
	C90.872063,110.437378 89.898842,109.312164 89.898537,101.454018 
	C89.898170,92.164337 89.898453,82.874657 89.898453,72.221985 
	C93.565666,73.079018 96.618507,73.917152 99.723549,74.452469 
	C100.855064,74.647537 102.124992,74.183571 103.307411,73.913574 
	C107.462555,72.964783 111.574181,71.364021 115.763527,71.136230 
	C121.801102,70.807938 128.045105,75.695457 129.032150,80.525642 
	C129.976334,85.146118 126.359383,90.037048 119.332695,93.293793 
	C117.125183,90.819847 114.832741,88.250725 112.345596,85.463402 
	C113.833466,84.835579 115.098999,84.456535 116.204292,83.805466 
	C119.238388,82.018250 122.650009,80.146423 121.170845,75.819901 
	C120.116646,72.736366 115.005074,72.164215 111.039566,74.680824 
	C104.757004,78.667877 100.162872,83.936035 99.509003,92.258705 
z"/>
<path fill="#AAB500" opacity="1.000000" stroke="none" 
	d="
M146.887878,81.042191 
	C146.887878,91.790245 146.887878,102.045708 146.887878,112.389885 
	C138.708832,110.171722 138.112549,109.427345 138.112213,101.759628 
	C138.111786,91.674835 138.112122,81.590050 138.112122,71.180634 
	C141.120148,71.180634 143.679703,71.180634 146.887878,71.180634 
	C146.887878,74.351616 146.887878,77.450607 146.887878,81.042191 
z"/>
<path fill="#A9B300" opacity="1.000000" stroke="none" 
	d="
M144.802979,50.272903 
	C142.788956,47.900158 141.295258,44.855782 139.002197,44.029369 
	C133.701111,42.118881 132.603409,37.944534 131.220154,33.455887 
	C141.471939,32.839470 148.062256,40.445496 148.018997,54.384453 
	C146.999390,53.125896 145.979782,51.867336 144.802979,50.272903 
z"/>
<path fill="#AAB500" opacity="1.000000" stroke="none" 
	d="
M160.913132,34.003525 
	C171.280609,36.854515 170.465683,46.221802 173.747284,53.087135 
	C173.287140,53.492386 172.827011,53.897636 172.366867,54.302887 
	C171.315414,53.298939 169.896515,52.480114 169.280258,51.256920 
	C167.296448,47.319229 164.974854,44.406410 160.473953,42.525993 
	C157.840775,41.425880 156.642181,36.892002 154.031128,32.659359 
	C157.192566,33.271572 158.865204,33.595482 160.913132,34.003525 
z"/>
<path fill="#AFBA00" opacity="1.000000" stroke="none" 
	d="
M71.431938,65.380806 
	C71.612877,66.826591 71.969093,68.671982 72.152466,70.756279 
	C71.855484,69.256927 71.731346,67.518669 71.431938,65.380806 
z"/>
<path fill="#AFBA00" opacity="1.000000" stroke="none" 
	d="
M76.068771,82.267159 
	C76.330223,82.028458 76.770172,82.016777 77.540131,82.001938 
	C77.329185,82.163918 76.788216,82.329048 76.068771,82.267159 
z"/>
<path fill="#AFBA00" opacity="1.000000" stroke="none" 
	d="
M33.730865,59.157108 
	C33.814445,59.374924 33.628342,59.561287 33.275005,59.858349 
	C33.238827,59.701149 33.356628,59.420013 33.730865,59.157108 
z"/>
<path fill="#AFBA00" opacity="1.000000" stroke="none" 
	d="
M33.097633,64.267052 
	C33.330456,64.170853 33.527054,64.344574 33.843330,64.678459 
	C33.675316,64.723549 33.374779,64.622993 33.097633,64.267052 
z"/>
</svg>